<svg xmlns="http://www.w3.org/2000/svg" width="170.634" height="132.499" viewBox="0 0 170.634 132.499">
  <title>employment</title>
  <g id="Layer_2" data-name="Layer 2">
    <g id="Layer_1-2" data-name="Layer 1">
      <g>
        <g>
          <circle cx="140.992" cy="94.722" r="4.05" style="fill: #221c35"/>
          <circle cx="154.677" cy="94.722" r="4.05" style="fill: #221c35"/>
          <circle cx="143.739" cy="69.794" r="6.798" style="fill: #221c35"/>
          <circle cx="155.154" cy="69.156" r="6.798" style="fill: #221c35"/>
          <path d="M136.955,69.376l-.014,25.346h8.1s-.739-6.75,5.076-16.489l.419-8.439Z" style="fill: #221c35"/>
          <polygon points="161.951 69.156 158.727 94.722 150.627 94.722 148.356 69.727 161.951 69.156" style="fill: #221c35"/>
          <path d="M136.941,94.722s2.6,18.949,1.682,25.6c0,0,1.205,3.424,7.666,2.7,0,0,1.459-22.757-1.247-28.3Z" style="fill: #221c35"/>
          <path d="M150.627,94.722s1.882,19.294.966,28.4c0,0,3.953-1.306,6.412,1.2,0,0,2.456-18.032.722-29.6Z" style="fill: #221c35"/>
          <rect x="147.338" y="13.853" width="8.172" height="9.944" style="fill: #f2c6ce"/>
          <path d="M158.2,5.786a5.787,5.787,0,0,0-6.17-5.774,5.918,5.918,0,0,0-5.4,5.972v7.293a2.819,2.819,0,0,0,.356,1.373l2.191,3.937a1.885,1.885,0,0,0,1.645.968h.588a1.885,1.885,0,0,0,1.565-.836l2.9-4.333a2.827,2.827,0,0,0,.374-.812l1.716-6.154h0A5.787,5.787,0,0,0,158.2,5.786Z" style="fill: #722513"/>
          <path d="M157.961,7.419a5.725,5.725,0,0,0,.176-2.467A5.854,5.854,0,0,0,152.4,0a5.786,5.786,0,0,0-5.772,5.786V9.478l1.2-2.87a1.072,1.072,0,0,1,1.582-.477,6.848,6.848,0,0,0,3.776,1.129,6.815,6.815,0,0,0,2.317-.4,1.082,1.082,0,0,1,1.446.8l.388,2.02.628-2.252Z" style="fill: #221c35"/>
          <polygon points="147.338 16.674 143.179 21.953 148.386 28.788 155.51 20.652 155.51 14.928 147.338 14.928 147.338 16.674" style="fill: #722513"/>
          <path d="M146.627,8.031h0a.965.965,0,0,0-.965.965v1.675a.964.964,0,0,0,.224.618l.741.889Z" style="fill: #722513"/>
          <path d="M157.4,9.429h0a1.057,1.057,0,0,1,.618,1.131l-.44,1.93a1.01,1.01,0,0,1-.525.673l-.808.411Z" style="fill: #722513"/>
          <path d="M153.57,16.758l-.134-.247a.788.788,0,0,0-.633-.414l-2.81-.225a.79.79,0,0,0-.637.245.792.792,0,0,1-1.179-.033l-1.158-1.37,2.155,3.873a1.883,1.883,0,0,0,1.645.968h.588a1.885,1.885,0,0,0,1.565-.836l2.152-3.214Z" style="fill: #221c35"/>
          <path d="M150.149,16.884c.758.04,1.512.112,2.266.2a.024.024,0,0,1,.021.027.025.025,0,0,1-.026.021c-.757-.04-1.513-.1-2.266-.185a.033.033,0,0,1-.029-.036A.032.032,0,0,1,150.149,16.884Z" style="fill: #722513"/>
          <circle cx="140.992" cy="25.31" r="4.05" style="fill: #afe2e3"/>
          <circle cx="136.941" cy="45.338" r="4.05" style="fill: #afe2e3"/>
          <circle cx="163.201" cy="27.084" r="4.05" style="fill: #afe2e3"/>
          <polygon points="139.201 65.817 144.196 23.288 148.386 28.788 153.202 23.288 156.247 33.127 156.247 65.817 139.201 65.817" style="fill: #fff"/>
          <circle cx="166.584" cy="46.153" r="4.05" style="fill: #afe2e3"/>
          <path d="M147.338,16.674s-2.5,4.025-6.738,4.586-3.022,6.227-3.022,6.227l2.4,23.07s-4.773,12.2-4.822,17.84c0,0,2.411.675,2.941,2.7,0,0,2.484-3.689,3.568-18.66s5.943-20.625,5.359-27.127c0,0-2.429-1.269-1.977-3.452A20.975,20.975,0,0,1,147.338,16.674Z" style="fill: #afe2e3"/>
          <polygon points="137.135 24.072 133.162 43.885 140.915 44.558 140.992 29.36 137.135 24.072" style="fill: #afe2e3"/>
          <path d="M155.51,16.674l2.688,2.151v.73l6.9,3.95-2.316,19.386S164.1,59.6,166.911,66.106c0,0-5.217,7.016-16.21,6.943l-.555-27.711a19.543,19.543,0,0,1,1.133-7.8c1.447-3.327,4.8-9.341,1.134-13.349l3.1-3.538Z" style="fill: #afe2e3"/>
          <polygon points="167.251 25.967 170.634 46.153 162.534 46.941 159.15 27.558 167.251 25.967" style="fill: #afe2e3"/>
          <path d="M159.15,43.252l6.728-1.083,1.746,8.034-6.581.571A12.276,12.276,0,0,0,159.15,43.252Z" style="fill: #afe2e3"/>
          <path d="M138.791,120.659l-2.9,3.453a5.073,5.073,0,0,1-3.556,1.8l-3.853.251a1.242,1.242,0,0,0-.975.585h0a1.243,1.243,0,0,0,.6,1.811l1.546.611h7.992l3.182-1.338v1.338h5.853a39.826,39.826,0,0,0-.393-6.148Z" style="fill: #221c35"/>
          <path d="M151.932,123.031a30.7,30.7,0,0,1-.906,5.6,7.692,7.692,0,0,0-.366,1.675,1.979,1.979,0,0,0,1.971,2.195h4.037a1.972,1.972,0,0,0,1.976-2.133,7.522,7.522,0,0,0-.313-1.52,9.9,9.9,0,0,1-.326-4.52l-1.988-3.363Z" style="fill: #221c35"/>
          <circle cx="138.925" cy="45.45" r="3.243" style="fill: #722513"/>
          <path d="M138.719,42.217l1.881-.532.156-.561a1.117,1.117,0,0,1,.831-.79l4.7-1.059-.788-1.832a1.687,1.687,0,0,1,.788-2.17h0l4.291,6.509,8.765,1.78,3.189,5.5-1.452.723-10.068-3.314s-4.954.807-5.972.807-2.321-.1-2.321-.1l-.916-.241Z" style="fill: #722513"/>
        </g>
        <g>
          <rect x="11.997" y="33.275" width="15.634" height="12.572" style="fill: #0047ba"/>
          <polygon points="0 32.527 0.617 47.335 6.513 46.559 6.66 32.758 0 32.527" style="fill: #722513"/>
          <polygon points="3.33 29.428 12.776 29.171 17.018 51.581 6.334 51.723 3.33 29.428" style="fill: #0047ba"/>
          <polygon points="13.792 126.576 13.63 127.365 13.349 127.937 12.148 129.078 12.148 129.728 16.716 129.292 16.457 127.324 13.792 126.576" style="fill: #722513"/>
          <circle cx="16.31" cy="127.062" r="2.564" style="fill: #722513"/>
          <circle cx="3.506" cy="117.921" r="2.564" style="fill: #221c35"/>
          <path d="M.941,117.921l1.486,5.61a2.647,2.647,0,0,1-.191,1.861h0a2.646,2.646,0,0,0,.459,3.016l1.98,2.06a1.214,1.214,0,0,0,.877.373h2.26a1.215,1.215,0,0,0,1.216-1.215h0L7.011,126.3l-.941-8.379Z" style="fill: #221c35"/>
          <path d="M13.792,126.576a2.689,2.689,0,0,1-.7,1.38c-.527.428-3.149,2.4-1.09,3.847s5.1.32,5.478-.481a7.543,7.543,0,0,1,1.179-1.977c.584-.694.736-1.665-.035-3.388a11.484,11.484,0,0,1-.791,3.164,4.081,4.081,0,0,0-2.661-.47c-1.485.267-2.874.481-2.874.481A3.979,3.979,0,0,0,13.792,126.576Z" style="fill: #221c35"/>
          <circle cx="8.854" cy="67.349" r="6.758" style="fill: #221c35"/>
          <circle cx="20.666" cy="67.349" r="6.758" style="fill: #221c35"/>
          <circle cx="12.003" cy="97.821" r="3.9" style="fill: #221c35"/>
          <circle cx="20.666" cy="98.03" r="3.9" style="fill: #221c35"/>
          <polygon points="2.186 68.447 8.103 98.574 15.87 98.574 15.606 67.591 2.186 68.447" style="fill: #221c35"/>
          <polygon points="8.103 98.574 13.475 126.3 18.66 126.3 15.87 98.574 8.103 98.574" style="fill: #221c35"/>
          <path d="M27.418,67.591,24.566,98.574l-7.8-1.335c.49-5.571-.34-15.034-2.839-29.411Z" style="fill: #221c35"/>
          <path d="M25.121,52.15l.32,1.6s2.511,3.473,2.565,12.02c0,0-13.944,5.823-26.925-2.137,0,0,.71-7.337,2.884-8.708Z" style="fill: #0047ba"/>
          <rect x="11.961" y="20.881" width="8.476" height="14.46" style="fill: #722513"/>
          <circle cx="27.065" cy="33.805" r="3.33" style="fill: #722513"/>
          <circle cx="16.199" cy="14.17" r="5.102" style="fill: #722513"/>
          <polygon points="30.395 33.574 30.316 49.514 24.404 49.514 23.735 33.805 30.395 33.574" style="fill: #722513"/>
          <path d="M27.065,30.475a3.329,3.329,0,0,1,3.251,2.615,5.968,5.968,0,0,0-4.976,3.559,3.327,3.327,0,0,1,1.725-6.174Z" style="fill: #0047ba"/>
          <path d="M15.06,10.908a7.6,7.6,0,0,0-4.452,4.025H9.432s.321-8.013,5.343-6.66Z" style="fill: #221c35"/>
          <path d="M9.432,14.933s-.632,3.321-.685,4.5a7.883,7.883,0,0,1-.534,3.446c-.535.882-1.6,2.03-.828,4.033A3.137,3.137,0,0,0,6.69,31.85,5.05,5.05,0,0,1,4.152,33.8c-1.388.267-3.2,5.289,3.1,6.17H12.62s1.068-4.861.588-8.093-.561-2.511-.268-3.793a9.28,9.28,0,0,0,0-4.777c-.537-1.634-1.775-9.4-1.775-9.4Z" style="fill: #221c35"/>
          <path d="M22.966,15.859a22.183,22.183,0,0,0,.926,6.98c1.068,2.956,3.74,3.562,1.638,6.874,0,0,2.921,1.282,1.425,5.057s.677,3.989.677,3.989-4.1,1.318-5.45-2.208-3.739-4.559-3.739-7.693,1.351-5.767,1.667-6.851a34.484,34.484,0,0,0,.79-7.074Z" style="fill: #221c35"/>
          <circle cx="3.557" cy="47.058" r="2.956" style="fill: #722513"/>
          <circle cx="3.33" cy="32.758" r="3.33" style="fill: #722513"/>
          <circle cx="27.36" cy="49.514" r="2.956" style="fill: #722513"/>
          <path d="M3.33,29.428A3.33,3.33,0,0,0,.079,32.043,5.968,5.968,0,0,1,5.055,35.6,3.327,3.327,0,0,0,3.33,29.428Z" style="fill: #0047ba"/>
          <rect x="6.032" y="31.759" width="17.603" height="23.596" transform="translate(10.915 -2.289) rotate(13.921)" style="fill: #ff9e18"/>
          <rect x="5.801" y="32.399" width="17.603" height="23.596" transform="translate(5.856 -1.521) rotate(7.453)" style="fill: #ff9e18"/>
          <rect x="5.107" y="32.833" width="17.603" height="23.596" transform="translate(2.616 -0.733) rotate(3.33)" style="fill: #f2c6ce"/>
          <rect x="6.64" y="34.655" width="16.397" height="21.98" style="fill: #ff9e18"/>
          <path d="M7.011,126.3l-.941-8.379H3.757v4.755a8.3,8.3,0,0,1-.517,2.883l-.052.139a1.013,1.013,0,0,0,.949,1.364H7.472Z" style="fill: #722513"/>
          <path d="M11.168,13.911l.033,3.044a12.265,12.265,0,0,0,.48,2.966l.607,2.086a4.025,4.025,0,0,0,1.5,2.13l1.233.893a1.031,1.031,0,0,0,.6.2H16.2v-9.4Z" style="fill: #722513"/>
          <path d="M21.3,14.17l-.1,2.785a12.215,12.215,0,0,1-.479,2.966l-.608,2.086a4.014,4.014,0,0,1-1.5,2.13l-1.233.893a1.027,1.027,0,0,1-.6.2H16.2v-9.4Z" style="fill: #722513"/>
          <path d="M15.06,10.908s.676-.189,1.851.618,2.066,4.19,6.055,4.333c0,0-.036-3.989-1.425-5.734s-4.594-3.562-6.766-1.852Z" style="fill: #221c35"/>
          <polygon points="24.192 99.687 6.07 119.498 1.993 115.853 16.766 97.239 24.192 99.687" style="fill: #221c35"/>
          <polygon points="3.557 44.101 20.437 45.348 20.437 48.887 3.557 50.014 3.557 44.101" style="fill: #722513"/>
          <path d="M20.437,45.348l.7-.73.3-1.063a1.911,1.911,0,0,1,1.135-1.264l2.475-.983a.661.661,0,0,1,.857.364h0a.662.662,0,0,1-.317.843l-.626.313,1.246.289a.7.7,0,0,1,.5.465l.163.507a.7.7,0,0,1-.249.772l-.141.1.356.641-1.046,1.4-5.356,1.879Z" style="fill: #722513"/>
          <polygon points="27.471 46.558 10.403 51.723 10.403 54.928 27.471 52.471 27.471 46.558" style="fill: #722513"/>
          <path d="M10.4,51.723,7.892,49.639l-4.335.375-.379.89a.6.6,0,0,0,.232.746h0a.6.6,0,0,1,.262.656l-.06.238a.6.6,0,0,0,.049.423l.2.385h0a1.87,1.87,0,0,0,.547,2.117l.885.735a1.869,1.869,0,0,0,1.487.408l1.381-.218a1.879,1.879,0,0,0,.864-.378l1.38-1.088Z" style="fill: #722513"/>
        </g>
        <g>
          <rect x="103.45" y="34.229" width="15.484" height="12.451" style="fill: #0047ba"/>
          <polygon points="91.53 34.431 95.166 48.653 100.72 46.691 98.03 33.289 91.53 34.431" style="fill: #f2c6ce"/>
          <polygon points="94.866 30.42 104.221 30.165 108.423 52.359 100.96 52.767 94.866 30.42" style="fill: #0047ba"/>
          <polygon points="105.228 126.633 105.067 127.414 104.789 127.981 103.599 129.111 103.599 129.755 108.123 129.323 107.867 127.374 105.228 126.633" style="fill: #f2c6ce"/>
          <circle cx="107.722" cy="127.114" r="2.54" style="fill: #f2c6ce"/>
          <circle cx="95.04" cy="118.061" r="2.54" style="fill: #221c35"/>
          <path d="M92.5,118.061l1.471,5.556a2.62,2.62,0,0,1-.189,1.843h0a2.619,2.619,0,0,0,.454,2.987l1.961,2.041a1.2,1.2,0,0,0,.868.369h2.239a1.2,1.2,0,0,0,1.2-1.2h0l-2-3.294-.931-8.3Z" style="fill: #221c35"/>
          <path d="M105.228,126.633a2.667,2.667,0,0,1-.693,1.367c-.521.423-3.119,2.381-1.079,3.81s5.055.317,5.425-.477a7.489,7.489,0,0,1,1.167-1.957c.579-.688.729-1.649-.034-3.356a11.359,11.359,0,0,1-.784,3.133,4.037,4.037,0,0,0-2.635-.465c-1.47.265-2.846.476-2.846.476A3.942,3.942,0,0,0,105.228,126.633Z" style="fill: #221c35"/>
          <circle cx="100.337" cy="67.976" r="6.693" style="fill: #221c35"/>
          <circle cx="112.035" cy="67.976" r="6.693" style="fill: #221c35"/>
          <circle cx="103.456" cy="98.155" r="3.862" style="fill: #221c35"/>
          <circle cx="112.035" cy="98.361" r="3.862" style="fill: #221c35"/>
          <polygon points="93.733 69.063 99.594 98.901 107.285 98.901 107.024 68.215 93.733 69.063" style="fill: #221c35"/>
          <polygon points="99.594 98.901 104.913 126.36 110.048 126.36 107.285 98.901 99.594 98.901" style="fill: #221c35"/>
          <path d="M118.723,68.215,115.9,98.9l-7.725-1.323c.485-5.518-.337-14.889-2.812-29.128Z" style="fill: #221c35"/>
          <path d="M117.071,43.2l-.306,11.31s2.486,3.439,2.539,11.9c0,0-13.809,5.767-26.666-2.116a49.013,49.013,0,0,1,4.8-12.539Z" style="fill: #0047ba"/>
          <polyline points="103.414 36.275 103.414 21.954 111.809 21.954 111.809 36.275" style="fill: #f2c6ce"/>
          <circle cx="118.373" cy="34.754" r="3.298" style="fill: #f2c6ce"/>
          <circle cx="107.612" cy="15.308" r="5.053" style="fill: #f2c6ce"/>
          <polygon points="121.671 34.525 121.593 50.313 115.738 50.313 115.075 34.754 121.671 34.525" style="fill: #f2c6ce"/>
          <path d="M118.373,31.456a3.3,3.3,0,0,1,3.22,2.59,5.909,5.909,0,0,0-4.928,3.525,3.3,3.3,0,0,1,1.708-6.115Z" style="fill: #0047ba"/>
          <path d="M106.483,12.078a7.524,7.524,0,0,0-4.409,3.986H100.91s.317-7.936,5.291-6.6Z" style="fill: #ff9e18"/>
          <path d="M100.91,16.064s-.626,3.289-.679,4.453A7.8,7.8,0,0,1,99.7,23.93c-.529.873-1.588,2.01-.82,3.994a3.106,3.106,0,0,0-.688,4.894,5,5,0,0,1-2.513,1.931c-1.376.265-3.175,5.238,3.068,6.111h5.318s1.058-4.814.582-8.015-.556-2.487-.265-3.757a9.2,9.2,0,0,0,0-4.731c-.532-1.618-1.758-9.3-1.758-9.3Z" style="fill: #ff9e18"/>
          <path d="M114.313,16.981a21.959,21.959,0,0,0,.917,6.913c1.058,2.928,3.7,3.528,1.623,6.808,0,0,2.892,1.27,1.411,5.009s.67,3.95.67,3.95-4.056,1.3-5.4-2.187-3.7-4.515-3.7-7.619,1.338-5.711,1.651-6.785a34.186,34.186,0,0,0,.782-7.006Z" style="fill: #ff9e18"/>
          <circle cx="98.111" cy="47.879" r="2.928" style="fill: #f2c6ce"/>
          <circle cx="94.866" cy="33.718" r="3.298" style="fill: #f2c6ce"/>
          <circle cx="118.665" cy="50.313" r="2.928" style="fill: #f2c6ce"/>
          <path d="M94.866,30.42a3.3,3.3,0,0,0-3.22,2.589,5.911,5.911,0,0,1,4.929,3.526,3.3,3.3,0,0,0-1.709-6.115Z" style="fill: #0047ba"/>
          <path d="M98.511,126.36l-.931-8.3H95.289v4.709a8.235,8.235,0,0,1-.512,2.856l-.051.138a1,1,0,0,0,.939,1.35h3.3Z" style="fill: #f2c6ce"/>
          <path d="M102.629,15.052l.033,3.015A12.083,12.083,0,0,0,103.137,21l.6,2.066a3.973,3.973,0,0,0,1.486,2.109l1.221.885a1.016,1.016,0,0,0,.6.194h.57V16.946Z" style="fill: #f2c6ce"/>
          <path d="M112.664,15.308l-.1,2.759A12.083,12.083,0,0,1,112.086,21l-.6,2.066A3.973,3.973,0,0,1,110,25.179l-1.221.885a1.016,1.016,0,0,1-.6.194h-.569V16.946Z" style="fill: #f2c6ce"/>
          <path d="M106.483,12.078s.67-.188,1.834.612,2.046,4.15,6,4.291c0,0-.035-3.951-1.411-5.679s-4.55-3.527-6.7-1.834Z" style="fill: #ff9e18"/>
          <polygon points="115.528 100.002 97.58 119.623 93.542 116.014 108.173 97.578 115.528 100.002" style="fill: #221c35"/>
          <polygon points="98.111 44.952 114.83 46.186 114.83 49.691 98.111 50.807 98.111 44.952" style="fill: #f2c6ce"/>
          <path d="M114.83,46.186l.7-.723.293-1.053a1.888,1.888,0,0,1,1.124-1.251l2.451-.974a.655.655,0,0,1,.849.361h0a.656.656,0,0,1-.314.835l-.62.31,1.234.286a.69.69,0,0,1,.5.46l.162.5a.689.689,0,0,1-.247.765l-.14.1.352.635-1.035,1.389-5.3,1.86Z" style="fill: #f2c6ce"/>
          <polygon points="116.038 50.128 116.704 67.776 119.775 68.58 121.702 51.611 116.038 50.128" style="fill: #f2c6ce"/>
          <path d="M116.7,67.776l-2.627,1.883-.728,4.247.759.587a.6.6,0,0,0,.772-.036h0a.6.6,0,0,1,.7-.086l.213.117a.6.6,0,0,0,.417.06l.419-.093h0a1.851,1.851,0,0,0,2.165.006l.926-.663a1.851,1.851,0,0,0,.764-1.322l.137-1.378a1.86,1.86,0,0,0-.145-.923l-.7-1.595Z" style="fill: #f2c6ce"/>
        </g>
        <g>
          <path d="M44.968,68.8l-.333,3.31-.091,4.551a3.588,3.588,0,0,0,.958,2.509L48,81.551a1.07,1.07,0,0,0,1.792-.8l-.027-.187-.182.029a.668.668,0,0,0,.321-1.185l-.35-.286-.928-.2a1.625,1.625,0,0,1-1.251-1.3L47.1,75.761c-.026-.178.044-.29.165-.308l.009,0c.175-1,.821-.524,1.128-.163l.225-.08c.086.1.364.141.383.274l.182,1.22c.121.812.641,1.414,1.456,1.314l-.051.009-.961-6.239L48.16,69.813l-.15-1.01Z" style="fill: #f2c6ce"/>
          <polygon points="47.056 50.933 45.56 62.659 45.06 68.765 48.076 69.501 52.845 51.603 47.056 50.933" style="fill: #f2c6ce"/>
          <circle cx="49.847" cy="51.644" r="2.914" style="fill: #f2c6ce"/>
          <polygon points="47 42.944 46.921 51.428 52.55 51.024 51.981 43.101 47 42.944" style="fill: #f2c6ce"/>
          <circle cx="61.043" cy="11.167" r="5.959" style="fill: #f2c6ce"/>
          <path d="M66.778,12.715l-1.526,4.436a2.557,2.557,0,0,1-.545.824l-2.8,3.344H58.185L56.21,18.492a3.007,3.007,0,0,1-.534-1.422l-.592-5.945Z" style="fill: #f2c6ce"/>
          <path d="M66.446,13.681l.489-.523a.846.846,0,0,1,1.316.1h0a.847.847,0,0,1-.066,1.042l-.8.892a3.649,3.649,0,0,1-2.2,2.119h0Z" style="fill: #f2c6ce"/>
          <path d="M64.51,18.143v4.97a3.94,3.94,0,0,0,1.923,3.271l1.173.576L62.88,30.97H55.919l-.648-4.9-.131.059a3.628,3.628,0,0,0,1.65-3.185V19.8Z" style="fill: #f2c6ce"/>
          <path d="M65.974,7.752l-.042.008.118-.642a2.2,2.2,0,0,0-.637-1.987L65.38,5.1A6.6,6.6,0,0,0,60.1,3.287h0A6.6,6.6,0,0,0,55.4,6.06l-.443.633a6.59,6.59,0,0,0-1.1,4.909l.467,2.7a.241.241,0,0,0,.451.072h0a5.265,5.265,0,0,1,3.282-2.616l2.129-.573a5.266,5.266,0,0,0,2.235-1.246L64.539,7.95s.108,3.993,2.239,5.207l1.228-2.84A1.857,1.857,0,0,0,67.812,8.5h0A1.857,1.857,0,0,0,65.974,7.752Z" style="fill: #722513"/>
          <circle cx="71.499" cy="34.768" r="5.423" style="fill: #ff9e18"/>
          <circle cx="52.56" cy="33.979" r="5.423" style="fill: #ff9e18"/>
          <path d="M73.956,29.935l-6.3-2.857L63.842,28.76a6.9,6.9,0,0,1-2.777.585h0a6.883,6.883,0,0,1-5.624-2.916l-.17-.241L52.56,28.454l-5.406,5.177-2.283,7.612s1.942,3.561,5.018,3.723c0,0,1.376,11.25-.486,21.286,0,0,5.1,4.452,24.12.729L70.69,53.545l1.619-8.013.485.972,8.58-3.724L75.97,31.7Z" style="fill: #ff9e18"/>
          <circle cx="68.018" cy="98.547" r="4.317" style="fill: #221c35"/>
          <circle cx="51.92" cy="98.547" r="4.317" style="fill: #221c35"/>
          <path d="M47.6,98.525s-.79-22.409,1.8-32.283l24.12.734a26.58,26.58,0,0,1,0,11.334c-1.3,6.879-3.025,12.142-1.189,19.426L63.756,99.2s-2.374-13.131-3.75-17.744c0,0-3.33,11.277-3.769,17.067Z" style="fill: #221c35"/>
          <path d="M72.334,97.737s2,13.015-3.182,25.156a7.289,7.289,0,0,1-5.451,0s1.862-16.8.055-23.69Z" style="fill: #221c35"/>
          <path d="M47.6,98.525s.748,14.337-2.166,23a11.2,11.2,0,0,0,7.285,1.139,32.731,32.731,0,0,1,.809-6.4c.81-3.642,3.55-7.118,2.706-17.734Z" style="fill: #221c35"/>
          <path d="M69.152,122.652a23.321,23.321,0,0,0,.864,4.1c.593,1.726.485,3.675-2.806,3.837s-4.263-.36-4.155-2.518.646-5.422.646-5.422Z" style="fill: #221c35"/>
          <path d="M70.3,128.17v2.34a1.381,1.381,0,0,1-.738,1.223,8.909,8.909,0,0,1-5.344.627,1.893,1.893,0,0,1-1.639-1.638v-1.688Z" style="fill: #221c35"/>
          <path d="M45.437,121.533a6.87,6.87,0,0,1-5.423,4.1c-4.1.54-5.5,1.187-5.611,2s-.108,2.32,3.939,2.266,6.436-.917,9.261-.917,6.171.215,6.063-1.835-1.1-2.118-.944-4.479Z" style="fill: #221c35"/>
          <circle cx="76.025" cy="49.042" r="2.914" style="fill: #f2c6ce"/>
          <polygon points="78.106 42.802 78.822 48.235 73.063 49.146 72.411 44.326 78.106 42.802" style="fill: #f2c6ce"/>
          <path d="M79.736,68.8l.391-11a21.425,21.425,0,0,0-.386-4.874l-.919-4.69-5.759.911.179,3.34a21.288,21.288,0,0,0,.606,4.04l3.073,12.311Z" style="fill: #f2c6ce"/>
          <circle cx="77.531" cy="72.152" r="2.428" style="fill: #f2c6ce"/>
          <path d="M79.9,67.913l.334,3.311.091,4.55a3.592,3.592,0,0,1-.958,2.51l-2.5,2.382a1.07,1.07,0,0,1-1.793-.8l.028-.187.182.03a.669.669,0,0,1-.321-1.186l.349-.285.928-.2a1.625,1.625,0,0,0,1.252-1.3l.277-1.862c.027-.178-.043-.29-.164-.308H77.6c-.175-1-.822-.525-1.128-.164l-.225-.079c-.087.1-.364.141-.384.273l-.181,1.22c-.121.812-.641,1.414-1.456,1.314l.05.01.961-6.24,1.471-1.973.151-1.01Z" style="fill: #f2c6ce"/>
          <path d="M67.056,12.321s-1.109,8.8-2.975,10.213c-2.654,2.011-6.515,1.368-7.882-.723C55.223,20.318,55.315,12,55.315,12l.643-.4s-.121,5.911,1.488,7.2a4.58,4.58,0,0,1,6.112.4c.656-.374,1.329-2.121,1.689-3.619a23.23,23.23,0,0,0,.442-4.946Z" style="fill: #722513"/>
        </g>
      </g>
    </g>
  </g>
</svg>
