<svg xmlns="http://www.w3.org/2000/svg" xmlns:xlink="http://www.w3.org/1999/xlink" viewBox="0 0 417.8 207.32">
  <defs>
    <clipPath id="clip-path">
      <path d="M355.95,80.22H315a21.77,21.77,0,1,0,41,0Z" fill="none"/>
    </clipPath>
    <clipPath id="clip-path-2">
      <path d="M413.72,73l1.5-1.3H371.44l1.5,1.3A11.12,11.12,0,0,1,375,87.34a21.58,21.58,0,1,0,36.66,0A11.11,11.11,0,0,1,413.72,73Z" fill="none"/>
    </clipPath>
  </defs>
  <title>main-img</title>
  <g id="Layer_2" data-name="Layer 2">
    <g id="Layer_2-2" data-name="Layer 2">
      <g>
        <g>
          <rect x="365.95" y="171.66" width="4.02" height="35.66" fill="#ff9e16"/>
          <path d="M365.95,171.66a17.83,17.83,0,1,0,17.83,17.83A17.83,17.83,0,0,0,365.95,171.66Zm0,21.5a3.68,3.68,0,1,1,3.68-3.68A3.68,3.68,0,0,1,365.95,193.17Z" fill="#ff9e16"/>
          <path d="M409.84,190h-12.1a3.58,3.58,0,0,1-3.58-3.57v-.12a3.58,3.58,0,0,1,3.58-3.59h17.39l-1.84-2.13,1.95-2.25H397.74a8,8,0,0,0-8,8v.12a8,8,0,0,0,8,7.93h12.1a3.58,3.58,0,0,1,3.58,3.58v.12a3.58,3.58,0,0,1-3.58,3.58H379.6v-9.07h-4.38V206h34.62a8,8,0,0,0,8-8V198A8,8,0,0,0,409.84,190Z" fill="#231c34"/>
          <path d="M370,171.66a17.83,17.83,0,1,0,17.83,17.83A17.83,17.83,0,0,0,370,171.66Zm0,21.5a3.68,3.68,0,1,1,3.68-3.68A3.68,3.68,0,0,1,370,193.17Z" fill="#fff"/>
          <circle cx="369.97" cy="179.12" r="5.11" fill="#231c34"/>
          <circle cx="360.1" cy="186.29" r="5.11" transform="translate(71.64 471.18) rotate(-72)" fill="#231c34"/>
          <circle cx="363.87" cy="197.88" r="5.11" transform="translate(-10.1 375.94) rotate(-54)" fill="#231c34"/>
          <circle cx="376.06" cy="197.88" r="5.11" transform="translate(-44.49 258.85) rotate(-36)" fill="#231c34"/>
          <circle cx="379.83" cy="186.29" r="5.11" transform="translate(-38.98 126.49) rotate(-18)" fill="#231c34"/>
        </g>
        <g>
          <rect x="340.45" y="126.17" width="30.14" height="30.14" rx="1.44" ry="1.44" fill="#231c34"/>
          <circle cx="354.12" cy="140.25" r="11.11" fill="#ff9e16"/>
          <g>
            <path d="M354.42,139l-1.59,1.59-8.56-5.44a11.13,11.13,0,0,1,4.72-4.72Z" fill="#fff"/>
            <path d="M364,145.38a11.15,11.15,0,0,1-4.72,4.72l-5.44-8.56,1.59-1.59Z" fill="#fff"/>
          </g>
          <circle cx="354.12" cy="140.25" r="1.59" fill="#231c34"/>
          <polyline points="366.88 130.95 366.88 144.08 364.54 149.56" fill="none" stroke="#fff" stroke-linecap="round" stroke-linejoin="round" stroke-width="0.88"/>
          <rect x="365.62" y="129" width="2.51" height="3.89" rx="0.52" ry="0.52" fill="#ff9e16"/>
          <rect x="343.01" y="153.53" width="2.84" height="1.31" rx="0.43" ry="0.43" fill="#ff9e16"/>
          <rect x="346.67" y="153.53" width="2.84" height="1.31" rx="0.43" ry="0.43" fill="#ff9e16"/>
        </g>
        <g>
          <path d="M393.53,135.17a10,10,0,0,1,10.67,0" fill="none" stroke="#231c34" stroke-linecap="round" stroke-linejoin="round" stroke-width="3.61"/>
          <path d="M388.08,149.5v-6.65a10.78,10.78,0,0,1,10.78-10.78h0a10.78,10.78,0,0,1,10.78,10.78v6.65" fill="none" stroke="#ff9e16" stroke-miterlimit="10" stroke-width="2.25"/>
          <g>
            <g>
              <path d="M392.32,144.38V156a5.8,5.8,0,1,1,0-11.6Z" fill="#231c34"/>
              <path d="M392.32,144.38h.77a.56.56,0,0,1,.56.56v10.47a.56.56,0,0,1-.56.56h-.77a0,0,0,0,1,0,0v-11.6A0,0,0,0,1,392.32,144.38Z" fill="#fff"/>
            </g>
            <g>
              <path d="M405.4,144.38V156a5.8,5.8,0,1,0,0-11.6Z" fill="#231c34"/>
              <path d="M404.07,144.38h.77a.56.56,0,0,1,.56.56v10.47a.56.56,0,0,1-.56.56h-.77a0,0,0,0,1,0,0v-11.6A0,0,0,0,1,404.07,144.38Z" transform="translate(809.48 300.35) rotate(-180)" fill="#fff"/>
            </g>
          </g>
        </g>
        <g>
          <g>
            <g>
              <path d="M80.53,157.78C73.66,160.34,67.18,160,66,157L73,175.43A13.27,13.27,0,0,0,90,183.21h0a13.27,13.27,0,0,0,7.78-17.09l-6.91-18.48C92,150.67,87.4,155.21,80.53,157.78Z" fill="#ff9e16"/>
              <path d="M66,157" fill="#ff4612"/>
              <path d="M90.82,147.43c0,.07.07.15.1.22l-.09-.23Z" fill="#ff4612"/>
            </g>
            <g>
              <path d="M80.53,157.78,90,183.21a13.27,13.27,0,0,0,7.78-17.09l-6.91-18.48C92,150.67,87.4,155.21,80.53,157.78Z" fill="#231c34"/>
              <path d="M90.82,147.43c0,.07,0,0,0,0Z" fill="#231c34"/>
            </g>
            <polygon points="82.32 162.57 82.5 173.81 86.04 172.49 82.32 162.57" fill="#231c34"/>
            <path d="M88,158.7a3.11,3.11,0,0,0-1.82,4L92,160.52A3.11,3.11,0,0,0,88,158.7Z" fill="#ff9e16"/>
            <path d="M75.3,163.44a3.11,3.11,0,0,0-1.82,4l5.82-2.18A3.11,3.11,0,0,0,75.3,163.44Z" fill="#231c34"/>
            <path d="M93.32,177.37A5.91,5.91,0,0,0,83.74,181Z" fill="#231c34"/>
          </g>
          <g>
            <path d="M111.35,165.71c-7.2-1.36-12.56-5-12-8.21l-3.67,19.39a13.27,13.27,0,0,0,10.58,15.51h0a13.27,13.27,0,0,0,15.51-10.58l3.67-19.39C124.88,165.6,118.55,167.07,111.35,165.71Z" fill="#fff"/>
            <path d="M99.39,157.49" fill="#fff"/>
            <path d="M125.51,162.19c0,.08,0,.16,0,.24l0-.24Z" fill="#fff"/>
          </g>
          <g>
            <path d="M111.35,165.71l-5,26.69a13.27,13.27,0,0,0,15.51-10.58l3.67-19.39C124.88,165.6,118.55,167.07,111.35,165.71Z" fill="#231c34"/>
            <path d="M125.51,162.19c0,.08,0,0,0,0Z" fill="#231c34"/>
          </g>
          <polygon points="110.4 170.73 104.72 180.44 108.43 181.14 110.4 170.73" fill="#231c34"/>
          <path d="M117.23,170.35a3.11,3.11,0,0,0-3.63,2.47l6.1,1.15A3.11,3.11,0,0,0,117.23,170.35Z" fill="#fff"/>
          <path d="M103.94,167.84a3.11,3.11,0,0,0-3.63,2.47l6.1,1.15A3.11,3.11,0,0,0,103.94,167.84Z" fill="#231c34"/>
          <path d="M102.63,184.29a5.91,5.91,0,0,0,10.05,1.9Z" fill="#231c34"/>
        </g>
        <g>
          <path d="M414.79,17.81s3.44,16.46-2.38,29.29c-2.92,6.44-17.7,9.2-21.8,0l11.18-17.48,3.69-8.7Z" fill="#231c34"/>
          <g>
            <path d="M415.08,20.65v-.17A11,11,0,0,0,404.58,9.4a51.63,51.63,0,0,0-7.05.16,11,11,0,0,0-9.53,7.7q-4.48,14.62,2.61,29.84A28.88,28.88,0,0,1,399,39.73a3.18,3.18,0,0,1,2.73-.11l.72.31a1.74,1.74,0,0,0,.68.14h0a1.74,1.74,0,0,0,1.74-1.84l-.38-6.88a3,3,0,0,1,2.95-3.21h.22A7.61,7.61,0,0,0,415.08,20.65Z" fill="#fff"/>
            <path d="M398.24,29a1.38,1.38,0,0,0,0-.33h0v0a1.38,1.38,0,0,0-.3-.57,3.74,3.74,0,0,0-3.4-1.44c-2.27.06-3.35.81-3.84,1.34a1.39,1.39,0,0,0-.35.5v0h0a1.38,1.38,0,0,0,1.29,1.89H397A1.39,1.39,0,0,0,398.24,29Z" fill="#ff9e16"/>
          </g>
        </g>
        <g>
          <rect x="269.51" y="144.14" width="69.15" height="42.98" transform="translate(138.45 469.72) rotate(-90)" fill="#231c34"/>
          <path d="M252.23,151.32h73.34a0,0,0,0,1,0,0V180.4a19.81,19.81,0,0,1-19.81,19.81H252.23a0,0,0,0,1,0,0V151.32a0,0,0,0,1,0,0Z" transform="translate(577.8 351.53) rotate(-180)" fill="#231c34"/>
          <rect x="281.53" y="156.17" width="69.15" height="18.93" transform="translate(150.47 481.74) rotate(-90)" fill="#fff"/>
          <line x1="306.64" y1="195.27" x2="325.57" y2="195.27" fill="none" stroke="#ff9e16" stroke-miterlimit="10" stroke-width="0.61"/>
          <line x1="306.64" y1="190.33" x2="325.57" y2="190.33" fill="none" stroke="#ff9e16" stroke-miterlimit="10" stroke-width="0.61"/>
          <line x1="306.64" y1="185.39" x2="325.57" y2="185.39" fill="none" stroke="#ff9e16" stroke-miterlimit="10" stroke-width="0.61"/>
          <line x1="306.64" y1="180.45" x2="325.57" y2="180.45" fill="none" stroke="#ff9e16" stroke-miterlimit="10" stroke-width="0.61"/>
          <line x1="306.64" y1="175.51" x2="325.57" y2="175.51" fill="none" stroke="#ff9e16" stroke-miterlimit="10" stroke-width="0.61"/>
          <line x1="306.64" y1="170.57" x2="325.57" y2="170.57" fill="none" stroke="#ff9e16" stroke-miterlimit="10" stroke-width="0.61"/>
          <line x1="306.64" y1="165.63" x2="325.57" y2="165.63" fill="none" stroke="#ff9e16" stroke-miterlimit="10" stroke-width="0.61"/>
          <line x1="306.64" y1="160.69" x2="325.57" y2="160.69" fill="none" stroke="#ff9e16" stroke-miterlimit="10" stroke-width="0.61"/>
          <line x1="306.64" y1="155.75" x2="325.57" y2="155.75" fill="none" stroke="#ff9e16" stroke-miterlimit="10" stroke-width="0.61"/>
          <line x1="306.64" y1="150.82" x2="325.57" y2="150.82" fill="none" stroke="#ff9e16" stroke-miterlimit="10" stroke-width="0.61"/>
          <line x1="306.64" y1="145.88" x2="325.57" y2="145.88" fill="none" stroke="#ff9e16" stroke-miterlimit="10" stroke-width="0.61"/>
          <line x1="306.64" y1="140.94" x2="325.57" y2="140.94" fill="none" stroke="#ff9e16" stroke-miterlimit="10" stroke-width="0.61"/>
          <line x1="306.64" y1="136" x2="325.57" y2="136" fill="none" stroke="#ff9e16" stroke-miterlimit="10" stroke-width="0.61"/>
          <rect x="312.23" y="190.48" width="2.08" height="9.77" transform="translate(117.9 508.63) rotate(-90)" fill="#231c34"/>
          <rect x="312.23" y="185.45" width="2.08" height="9.77" transform="translate(122.94 503.6) rotate(-90)" fill="#231c34"/>
          <rect x="312.23" y="175.57" width="2.08" height="9.77" transform="translate(132.81 493.72) rotate(-90)" fill="#231c34"/>
          <rect x="312.23" y="170.63" width="2.08" height="9.77" transform="translate(137.75 488.78) rotate(-90)" fill="#231c34"/>
          <rect x="312.23" y="165.69" width="2.08" height="9.77" transform="translate(142.69 483.84) rotate(-90)" fill="#231c34"/>
          <rect x="312.23" y="155.86" width="2.08" height="9.77" transform="translate(152.52 474.01) rotate(-90)" fill="#231c34"/>
          <rect x="312.23" y="150.82" width="2.08" height="9.77" transform="translate(157.56 468.97) rotate(-90)" fill="#231c34"/>
          <rect x="312.23" y="140.94" width="2.08" height="9.77" transform="translate(167.44 459.09) rotate(-90)" fill="#231c34"/>
          <rect x="312.23" y="136.01" width="2.08" height="9.77" transform="translate(172.38 454.15) rotate(-90)" fill="#231c34"/>
          <rect x="312.23" y="131.07" width="2.08" height="9.77" transform="translate(177.32 449.22) rotate(-90)" fill="#231c34"/>
        </g>
        <g>
          <path d="M185.48,125a3.22,3.22,0,0,0-3.22-3.22H134.59a3.22,3.22,0,0,0-3.22,3.22v4.12h54.11Z" fill="#fff"/>
          <path d="M131.37,129.14v18.43a3.22,3.22,0,0,0,3.22,3.22h47.67a3.22,3.22,0,0,0,3.22-3.22V129.14Z" fill="#b1e3e3"/>
          <circle cx="165.81" cy="138.28" r="12.63" fill="#fff"/>
          <circle cx="165.81" cy="138.28" r="9.8" fill="#231c34"/>
          <path d="M165.81,135.15a19.12,19.12,0,0,1,9.79,2.68,9.8,9.8,0,0,0-19.58,0A19.12,19.12,0,0,1,165.81,135.15Z" fill="#b1e3e3"/>
          <rect x="148.53" y="116.9" width="16.15" height="4.89" fill="#fff"/>
          <rect x="156.49" y="116.9" width="8.19" height="4.89" fill="#b1e3e3"/>
          <rect x="138.13" y="118.44" width="6.36" height="3.36" fill="#b1e3e3"/>
        </g>
        <g>
          <polygon points="243.05 139.84 208.57 139.84 208.57 135.32 243.05 125.52 243.05 139.84" fill="#fff"/>
          <rect x="216.5" y="139.39" width="7.82" height="7.82" transform="translate(60.01 -64.99) rotate(19.37)" fill="none" stroke="#231c34" stroke-linecap="round" stroke-linejoin="round" stroke-width="0.96"/>
          <polygon points="243.05 136.82 208.57 136.82 208.57 141.34 243.05 151.14 243.05 136.82" fill="#fff"/>
          <rect x="205.87" y="134.77" width="2.71" height="7.08" fill="#ff9e16"/>
          <rect x="243.05" y="124.09" width="2.71" height="28.44" fill="#ff9e16"/>
        </g>
        <g>
          <path d="M182.83,171.78a5.22,5.22,0,0,0-2.09.45h0l-3.22,1.25a9.75,9.75,0,0,1-8.76-.88c-3.15-2-7.45-4.49-10.24-5.07h0a10,10,0,0,0-2.72-.38c-7.46,0-13.52,8.39-13.52,18.73h48.91C191.19,178.09,187.44,171.78,182.83,171.78Z" fill="#fff"/>
          <path d="M158.52,204.22h0c2.78-.58,7.09-3.06,10.24-5.07a9.75,9.75,0,0,1,8.76-.88l3.22,1.25h0a5.22,5.22,0,0,0,2.09.45c4.62,0,8.36-6.31,8.36-14.09H142.28c0,10.34,6.05,18.73,13.52,18.73A10,10,0,0,0,158.52,204.22Z" fill="#ff9e16"/>
          <polygon points="181.09 188.19 181.09 183.56 223.08 184.13 223.08 187.61 181.09 188.19" fill="#fff"/>
          <polygon points="224.22 188.47 224.22 183.27 223.08 184.13 223.08 187.61 224.22 188.47" fill="#fff"/>
          <rect x="225.95" y="181.54" width="5.18" height="8.64" transform="translate(414.39 -42.68) rotate(90)" fill="#fff"/>
          <rect x="154.78" y="184.67" width="14.87" height="2.41" transform="translate(348.09 23.66) rotate(90)" fill="#fff"/>
          <polygon points="161.01 191.2 161.01 180.54 159.88 182.57 159.88 189.17 161.01 191.2" fill="#fff"/>
          <circle cx="176.6" cy="185.87" r="5.7" fill="#231c34"/>
          <circle cx="225.99" cy="181.9" r="0.83" fill="#231c34"/>
          <circle cx="228.54" cy="181.9" r="0.83" fill="#231c34"/>
          <circle cx="231.08" cy="181.9" r="0.83" fill="#231c34"/>
          <circle cx="225.99" cy="189.84" r="0.83" fill="#231c34"/>
          <circle cx="228.54" cy="189.84" r="0.83" fill="#231c34"/>
          <circle cx="231.08" cy="189.84" r="0.83" fill="#231c34"/>
        </g>
        <g>
          <polygon points="71.94 135.09 66.81 129.96 66.54 131.95 69.98 135.4 71.94 135.09" fill="#fff"/>
          <path d="M81,127a4.57,4.57,0,0,1-2.14-4,4.8,4.8,0,0,1-4-2.17L66.81,130l5.13,5.13Z" fill="#fff"/>
          <circle cx="23.65" cy="178.29" r="21.24" transform="translate(-119.14 68.94) rotate(-45)" fill="#fff"/>
          <path d="M.05,184.63a1.21,1.21,0,0,1,.85-1.48h0a1.21,1.21,0,0,1,1.48.86h0a1.21,1.21,0,0,1-.85,1.48h0a1.2,1.2,0,0,1-1.16-.31h0A1.22,1.22,0,0,1,.05,184.63Zm16.43,15.79a1.21,1.21,0,0,1,1.48-.86h0a1.2,1.2,0,0,1,.85,1.47h0a1.2,1.2,0,0,1-1.47.85h0a1.19,1.19,0,0,1-.54-.31h0A1.21,1.21,0,0,1,16.48,200.42ZM0,172a1.2,1.2,0,0,1,1.47-.85h0a1.2,1.2,0,0,1,.85,1.47h0a1.2,1.2,0,0,1-1.47.85h0a1.19,1.19,0,0,1-.54-.31h0A1.2,1.2,0,0,1,0,172ZM28.5,201a1.21,1.21,0,0,1,.85-1.47h0a1.21,1.21,0,0,1,1.48.85h0a1.21,1.21,0,0,1-.85,1.48h0a1.2,1.2,0,0,1-1.17-.31h0A1.19,1.19,0,0,1,28.5,201ZM6.36,161a1.2,1.2,0,0,1,1.7,0h0a1.21,1.21,0,0,1,0,1.71h0a1.21,1.21,0,0,1-1.71,0h0A1.21,1.21,0,0,1,6.36,161Zm32.87,32.83h0l0,0h0a1.2,1.2,0,0,1,1.71,0h0a1.2,1.2,0,0,1,0,1.71h0l0,0h0l0,0h0a1.21,1.21,0,0,1-1.71,0h0A1.21,1.21,0,0,1,39.22,193.86ZM16.44,156.17a1.21,1.21,0,0,1,.85-1.48h0a1.21,1.21,0,0,1,1.48.85h0a1.21,1.21,0,0,1-.85,1.48h0a1.21,1.21,0,0,1-1.17-.31h0A1.18,1.18,0,0,1,16.44,156.17Zm28.49,27.78a1.21,1.21,0,0,1,1.47-.86h0a1.21,1.21,0,0,1,.85,1.47h0a1.2,1.2,0,0,1-1.47.86h0a1.2,1.2,0,0,1-.54-.31h0A1.2,1.2,0,0,1,44.94,183.94ZM28.46,155.53a1.21,1.21,0,0,1,1.47-.85h0a1.2,1.2,0,0,1,.86,1.47h0a1.21,1.21,0,0,1-1.47.86h0a1.23,1.23,0,0,1-.54-.31h0A1.21,1.21,0,0,1,28.46,155.53Zm16.45,17h0a1.21,1.21,0,0,1,.85-1.48h0a1.21,1.21,0,0,1,1.48.85h0a1.2,1.2,0,0,1-.85,1.48h0a1.21,1.21,0,0,1-1.17-.31h0A1.21,1.21,0,0,1,44.91,172.54ZM39.19,161a1.2,1.2,0,0,1,1.71,0h0a1.2,1.2,0,0,1,0,1.71h0a1.21,1.21,0,0,1-1.71,0h0A1.21,1.21,0,0,1,39.19,161Z" fill="#231c34"/>
          <path d="M38.67,163.27l-30,30a21.24,21.24,0,0,0,30-30Z" fill="#b1e3e3"/>
          <path d="M7.6,189.55h3.25a1.62,1.62,0,0,1,1.62,1.62v4.7a0,0,0,0,1,0,0H6a0,0,0,0,1,0,0v-4.7A1.62,1.62,0,0,1,7.6,189.55Z" transform="translate(138.97 49.92) rotate(45)" fill="#231c34"/>
          <polygon points="33.95 172.58 29.35 167.99 67.55 130.97 70.97 134.39 33.95 172.58" fill="#fff"/>
          <circle cx="74.03" cy="125.14" r="0.94" transform="translate(-66.8 89) rotate(-45)" fill="#231c34"/>
          <circle cx="70.31" cy="128.86" r="0.94" transform="translate(-70.53 87.46) rotate(-45)" fill="#231c34"/>
          <circle cx="76.8" cy="127.9" r="0.94" transform="translate(-67.95 91.77) rotate(-45)" fill="#231c34"/>
          <circle cx="73.07" cy="131.63" r="0.94" transform="translate(-71.67 90.22) rotate(-45)" fill="#231c34"/>
          <rect x="11.67" y="182.38" width="14.52" height="1.19" transform="translate(134.93 40.21) rotate(45)" fill="#231c34"/>
        </g>
        <g>
          <g>
            <path d="M176,28.64,154.07,10.71l22.16,22.16A2.85,2.85,0,0,0,176,28.64Z" fill="#231c34"/>
            <path d="M172,32.65a2.85,2.85,0,0,0,4.22.21L154.07,10.71Z" fill="#fff"/>
            <path d="M145.9,2.53c-2.86,2.86-1.51,8.83,3,13.34L159.24,5.53C154.73,1,148.75-.32,145.9,2.53Z" fill="#fff"/>
            <path d="M162.24,18.88c2.86-2.86,1.51-8.83-3-13.34L148.9,15.88C153.41,20.39,159.38,21.73,162.24,18.88Z" fill="#231c34"/>
            <path d="M156.94,5.2c-1.06,1.06-2.56-.44-3.62.62s.44,2.56-.62,3.62-2.56-.44-3.62.62.44,2.56-.62,3.62a1.4,1.4,0,0,1-1.16.39,18.11,18.11,0,0,0,1.59,1.81,17.1,17.1,0,0,0,4.37,3.19,1.33,1.33,0,0,0,.35-.25c1.06-1.06-.44-2.56.62-3.62s2.56.44,3.62-.62-.44-2.56.62-3.62,2.56.44,3.62-.62a1.3,1.3,0,0,0,.32-.51,17.12,17.12,0,0,0-3.16-4.31,18.08,18.08,0,0,0-1.92-1.67A1.49,1.49,0,0,1,156.94,5.2Z" fill="#b1e3e3"/>
          </g>
          <g>
            <path d="M165.59,33.13l17.94-21.95L161.37,33.34A2.85,2.85,0,0,0,165.59,33.13Z" fill="#231c34"/>
            <path d="M161.58,29.12a2.85,2.85,0,0,0-.21,4.22l22.16-22.16Z" fill="#fff"/>
            <path d="M191.7,3c-2.86-2.86-8.83-1.51-13.34,3L188.7,16.35C193.21,11.84,194.55,5.87,191.7,3Z" fill="#fff"/>
            <path d="M175.36,19.35c2.86,2.86,8.83,1.51,13.34-3L178.36,6C173.84,10.52,172.5,16.5,175.36,19.35Z" fill="#231c34"/>
            <path d="M189,14c-1.06-1.06.44-2.56-.62-3.62s-2.56.44-3.62-.62.44-2.56-.62-3.62-2.56.44-3.62-.62a1.4,1.4,0,0,1-.39-1.16A18.11,18.11,0,0,0,178.36,6a17.1,17.1,0,0,0-3.19,4.37,1.33,1.33,0,0,0,.25.35c1.06,1.06,2.56-.44,3.62.62s-.44,2.56.62,3.62,2.56-.44,3.62.62-.44,2.56.62,3.62a1.3,1.3,0,0,0,.51.32,17.12,17.12,0,0,0,4.31-3.16,18.08,18.08,0,0,0,1.67-1.92A1.49,1.49,0,0,1,189,14Z" fill="#b1e3e3"/>
          </g>
        </g>
        <g>
          <path d="M152.86,102.82V47.06H142.74s-8.09,30,6.07,55.76Z" fill="#231c34"/>
          <path d="M152.86,102.82V47.06H163s8.09,30-6.07,55.76Z" fill="#ff9e16"/>
          <path d="M143.22,45.71h19.28a1.73,1.73,0,0,1,1.73,1.73v1a0,0,0,0,1,0,0H141.49a0,0,0,0,1,0,0v-1A1.73,1.73,0,0,1,143.22,45.71Z" fill="#fff"/>
          <path d="M144.19,48.41h1.73a0,0,0,0,1,0,0v4.89a.55.55,0,0,1-.55.55h-.62a.55.55,0,0,1-.55-.55V48.41A0,0,0,0,1,144.19,48.41Z" fill="#fff"/>
          <path d="M152,48.41h1.73a0,0,0,0,1,0,0v4.89a.55.55,0,0,1-.55.55h-.62a.55.55,0,0,1-.55-.55V48.41a0,0,0,0,1,0,0Z" fill="#fff"/>
          <path d="M159.79,48.41h1.73a0,0,0,0,1,0,0v4.89a.55.55,0,0,1-.55.55h-.62a.55.55,0,0,1-.55-.55V48.41A0,0,0,0,1,159.79,48.41Z" fill="#fff"/>
        </g>
        <g>
          <path d="M186.12,102.82V47.06H176s-8.09,30,6.07,55.76Z" fill="#231c34"/>
          <path d="M186.12,102.82V47.06h10.11s8.09,30-6.07,55.76Z" fill="#ff9e16"/>
          <path d="M176.49,45.71h19.28a1.73,1.73,0,0,1,1.73,1.73v1a0,0,0,0,1,0,0H174.76a0,0,0,0,1,0,0v-1a1.73,1.73,0,0,1,1.73-1.73Z" fill="#fff"/>
          <path d="M177.46,48.41h1.73a0,0,0,0,1,0,0v4.89a.55.55,0,0,1-.55.55H178a.55.55,0,0,1-.55-.55V48.41A0,0,0,0,1,177.46,48.41Z" fill="#fff"/>
          <path d="M185.26,48.41H187a0,0,0,0,1,0,0v4.89a.55.55,0,0,1-.55.55h-.62a.55.55,0,0,1-.55-.55V48.41A0,0,0,0,1,185.26,48.41Z" fill="#fff"/>
          <path d="M193.06,48.41h1.73a0,0,0,0,1,0,0v4.89a.55.55,0,0,1-.55.55h-.62a.55.55,0,0,1-.55-.55V48.41A0,0,0,0,1,193.06,48.41Z" fill="#fff"/>
        </g>
        <g>
          <rect x="302.83" y="14.43" width="18.89" height="6.44" fill="#fff"/>
          <rect x="302.83" y="20.86" width="28.44" height="6.44" fill="#ff9e16"/>
          <rect x="302.83" y="27.3" width="38" height="6.44" fill="#fff"/>
          <rect x="302.83" y="33.73" width="47.55" height="6.44" fill="#ff9e16"/>
          <rect x="302.83" y="40.17" width="57.11" height="6.44" fill="#fff"/>
          <rect x="302.83" y="46.61" width="66.67" height="6.44" fill="#ff9e16"/>
          <rect x="302.83" y="53.04" width="76.22" height="6.44" fill="#fff"/>
          <circle cx="379.05" cy="56.26" r="3.22" fill="#231c34"/>
          <circle cx="369.49" cy="49.82" r="3.22" fill="#231c34"/>
          <circle cx="359.94" cy="43.39" r="3.22" fill="#231c34"/>
          <circle cx="350.38" cy="36.95" r="3.22" fill="#231c34"/>
          <circle cx="340.82" cy="30.52" r="3.22" fill="#231c34"/>
          <circle cx="331.27" cy="24.08" r="3.22" fill="#231c34"/>
          <circle cx="321.71" cy="17.65" r="3.22" fill="#231c34"/>
          <rect x="288.98" y="34.89" width="45.05" height="4.12" transform="translate(274.56 348.46) rotate(-90)" fill="#231c34"/>
        </g>
        <g>
          <path d="M315,80.22a21.78,21.78,0,0,0,20.5,29.12V80.22Z" fill="#fff"/>
          <path d="M355.95,80.22h-20.5v29.12a21.78,21.78,0,0,0,20.5-29.12Z" fill="#ff9e16"/>
          <path d="M315,80.21a59.76,59.76,0,0,0,41,0,59.77,59.77,0,0,0-41,0Z" fill="#231c34"/>
          <path d="M335.45,85.45H313.78c-.07.7-.1,1.41-.1,2.12h21.77Z" fill="#231c34"/>
          <path d="M335.45,87.57h21.77c0-.72,0-1.42-.1-2.12H335.45Z" fill="#231c34"/>
          <g clip-path="url(#clip-path)">
            <g>
              <polygon points="330.39 105.91 335.45 102.58 340.5 105.91 330.39 105.91" fill="#231c34"/>
              <polygon points="330.39 99.26 335.45 102.58 340.5 99.26 330.39 99.26" fill="#231c34"/>
              <polygon points="325.34 102.58 330.39 99.26 335.45 102.58 325.34 102.58" fill="#ff9e16"/>
              <polygon points="325.34 95.93 330.39 99.26 335.45 95.93 325.34 95.93" fill="#231c34"/>
              <polygon points="320.28 99.26 325.34 95.93 330.39 99.26 320.28 99.26" fill="#ff9e16"/>
              <polygon points="355.67 95.93 360.73 99.26 365.79 95.93 355.67 95.93" fill="#231c34"/>
              <polygon points="350.62 99.26 355.67 95.93 360.73 99.26 350.62 99.26" fill="#231c34"/>
              <polygon points="345.56 95.93 340.5 99.26 335.45 95.93 345.56 95.93" fill="#231c34"/>
              <polygon points="350.62 99.26 345.56 95.93 340.5 99.26 350.62 99.26" fill="#fff"/>
              <polygon points="315.22 95.93 310.17 99.26 305.11 95.93 315.22 95.93" fill="#231c34"/>
              <polygon points="320.28 99.26 315.22 95.93 310.17 99.26 320.28 99.26" fill="#231c34"/>
              <polygon points="345.56 102.58 340.5 99.26 335.45 102.58 345.56 102.58" fill="#fff"/>
              <polygon points="325.34 89.28 320.28 92.6 315.22 89.28 325.34 89.28" fill="#231c34"/>
              <polygon points="325.34 95.93 320.28 92.6 315.22 95.93 325.34 95.93" fill="#ff9e16"/>
              <polygon points="330.39 92.6 325.34 95.93 320.28 92.6 330.39 92.6" fill="#231c34"/>
              <polygon points="310.17 92.6 315.22 95.93 320.28 92.6 310.17 92.6" fill="#231c34"/>
              <polygon points="355.67 89.28 350.62 92.6 345.56 89.28 355.67 89.28" fill="#231c34"/>
              <polygon points="355.67 95.93 350.62 92.6 345.56 95.93 355.67 95.93" fill="#fff"/>
              <polygon points="360.73 92.6 355.67 95.93 350.62 92.6 360.73 92.6" fill="#231c34"/>
              <polygon points="340.5 92.6 345.56 95.93 350.62 92.6 340.5 92.6" fill="#231c34"/>
            </g>
          </g>
        </g>
        <g>
          <rect x="220.3" y="9.71" width="4.32" height="4.89" fill="#ff9e16"/>
          <path d="M222.82,9.71v97a2.11,2.11,0,0,0,2.11,2.11h28.59V9.71Z" fill="#b1e3e3"/>
          <path d="M284.21,11.82a2.11,2.11,0,0,0-2.11-2.11H253.52v99.13h30.7Z" fill="#231c34"/>
          <path d="M224.62,99.06h63.81a0,0,0,0,1,0,0v9.09a.69.69,0,0,1-.69.69H224.62a0,0,0,0,1,0,0V99.06A0,0,0,0,1,224.62,99.06Z" fill="#231c34"/>
          <path d="M222.82,99.06H227a0,0,0,0,1,0,0v9.09a.69.69,0,0,1-.69.69h-2.84a.69.69,0,0,1-.69-.69V99.06A0,0,0,0,1,222.82,99.06Z" fill="#b1e3e3"/>
          <path d="M218.6,9.71h4.22a0,0,0,0,1,0,0V18.8a.69.69,0,0,1-.69.69h-2.84a.69.69,0,0,1-.69-.69V9.71a0,0,0,0,1,0,0Z" transform="translate(441.41 29.21) rotate(-180)" fill="#231c34"/>
          <g>
            <line x1="227.63" y1="98.15" x2="227.63" y2="96.16" fill="none" stroke="#fff" stroke-miterlimit="10" stroke-width="0.95"/>
            <circle cx="227.63" cy="98.3" r="0.76" fill="#fff"/>
          </g>
          <g>
            <line x1="219.19" y1="20.4" x2="219.19" y2="22.4" fill="none" stroke="#fff" stroke-miterlimit="10" stroke-width="0.95"/>
            <circle cx="219.19" cy="20.25" r="0.76" fill="#fff"/>
          </g>
          <g>
            <line x1="232.1" y1="98.15" x2="232.1" y2="96.16" fill="none" stroke="#fff" stroke-miterlimit="10" stroke-width="0.95"/>
            <circle cx="232.1" cy="98.3" r="0.76" fill="#fff"/>
          </g>
          <g>
            <line x1="236.57" y1="98.15" x2="236.57" y2="96.16" fill="none" stroke="#fff" stroke-miterlimit="10" stroke-width="0.95"/>
            <circle cx="236.57" cy="98.3" r="0.76" fill="#fff"/>
          </g>
          <g>
            <line x1="241.04" y1="98.15" x2="241.04" y2="96.16" fill="none" stroke="#fff" stroke-miterlimit="10" stroke-width="0.95"/>
            <circle cx="241.04" cy="98.3" r="0.76" fill="#fff"/>
          </g>
          <g>
            <line x1="245.5" y1="98.15" x2="245.5" y2="96.16" fill="none" stroke="#fff" stroke-miterlimit="10" stroke-width="0.95"/>
            <circle cx="245.5" cy="98.3" r="0.76" fill="#fff"/>
          </g>
          <g>
            <line x1="249.97" y1="98.15" x2="249.97" y2="96.16" fill="none" stroke="#fff" stroke-miterlimit="10" stroke-width="0.95"/>
            <circle cx="249.97" cy="98.3" r="0.76" fill="#fff"/>
          </g>
          <g>
            <line x1="254.44" y1="98.15" x2="254.44" y2="96.16" fill="none" stroke="#fff" stroke-miterlimit="10" stroke-width="0.95"/>
            <circle cx="254.44" cy="98.3" r="0.76" fill="#fff"/>
          </g>
          <g>
            <line x1="258.91" y1="98.15" x2="258.91" y2="96.16" fill="none" stroke="#fff" stroke-miterlimit="10" stroke-width="0.95"/>
            <circle cx="258.91" cy="98.3" r="0.76" fill="#fff"/>
          </g>
          <g>
            <line x1="263.38" y1="98.15" x2="263.38" y2="96.16" fill="none" stroke="#fff" stroke-miterlimit="10" stroke-width="0.95"/>
            <circle cx="263.38" cy="98.3" r="0.76" fill="#fff"/>
          </g>
          <g>
            <line x1="267.85" y1="98.15" x2="267.85" y2="96.16" fill="none" stroke="#fff" stroke-miterlimit="10" stroke-width="0.95"/>
            <circle cx="267.85" cy="98.3" r="0.76" fill="#fff"/>
          </g>
          <g>
            <line x1="272.32" y1="98.15" x2="272.32" y2="96.16" fill="none" stroke="#fff" stroke-miterlimit="10" stroke-width="0.95"/>
            <circle cx="272.32" cy="98.3" r="0.76" fill="#fff"/>
          </g>
          <g>
            <line x1="276.79" y1="98.15" x2="276.79" y2="96.16" fill="none" stroke="#fff" stroke-miterlimit="10" stroke-width="0.95"/>
            <circle cx="276.79" cy="98.3" r="0.76" fill="#fff"/>
          </g>
          <g>
            <line x1="281.26" y1="98.15" x2="281.26" y2="96.16" fill="none" stroke="#fff" stroke-miterlimit="10" stroke-width="0.95"/>
            <circle cx="281.26" cy="98.3" r="0.76" fill="#fff"/>
          </g>
          <g>
            <line x1="285.73" y1="98.15" x2="285.73" y2="96.16" fill="none" stroke="#fff" stroke-miterlimit="10" stroke-width="0.95"/>
            <circle cx="285.73" cy="98.3" r="0.76" fill="#fff"/>
          </g>
          <polygon points="253.52 30.57 230.58 53.51 253.52 53.51 253.52 30.57" fill="#fff"/>
          <polygon points="230.58 53.51 253.52 76.44 253.52 53.51 230.58 53.51" fill="#231c34"/>
          <polygon points="253.52 76.44 276.45 53.51 253.52 53.51 253.52 76.44" fill="#fff"/>
          <polygon points="253.52 53.51 276.45 53.51 253.52 30.57 253.52 53.51" fill="#b1e3e3"/>
          <polygon points="258.02 26.28 253.52 30.18 249.01 26.28 258.02 26.28" fill="#fff"/>
          <polygon points="258.02 80.73 253.52 76.83 249.01 80.73 258.02 80.73" fill="#fff"/>
          <polygon points="280.74 58.01 276.84 53.51 280.74 49 280.74 58.01" fill="#fff"/>
          <polygon points="226.29 58.01 230.19 53.51 226.29 49 226.29 58.01" fill="#fff"/>
        </g>
        <g>
          <rect x="7.12" y="10.43" width="107.35" height="8.19" fill="#fff"/>
          <rect x="7.12" y="101.93" width="107.35" height="8.19" fill="#fff"/>
          <rect x="-39.72" y="56.43" width="121.05" height="8.19" transform="translate(-39.72 81.33) rotate(-90)" fill="#fff"/>
          <rect x="40.4" y="56.43" width="121.05" height="8.19" transform="translate(40.4 161.45) rotate(-90)" fill="#fff"/>
          <path d="M30.28,34.68l5.17,12a2.51,2.51,0,0,1,.21,1v25a2.51,2.51,0,0,1-.17.91L30.11,87.36a2.51,2.51,0,0,0,.13,2.1L33.76,96A2.51,2.51,0,0,0,36,97.32h7.37a2.51,2.51,0,0,0,.67-.09l8.26-2.29a2.51,2.51,0,0,1,1.26,0l3,.72a2.51,2.51,0,0,1,1.14.61l2.41,2.27a2.51,2.51,0,0,0,1.72.68h1.4a2.51,2.51,0,0,0,2.07-1.08l1.68-2.42a2.51,2.51,0,0,1,1.77-1.07l7.53-.9a2.51,2.51,0,0,1,1.67.39l5,3.25a2.51,2.51,0,0,0,1.58.4l3.52-.3a2.51,2.51,0,0,0,2.15-1.64l2.25-6.15a2.51,2.51,0,0,0-.29-2.29l-4.15-6a2.51,2.51,0,0,1-.44-1.29l-.77-14.28a2.51,2.51,0,0,1,.48-1.61h0a2.51,2.51,0,0,0,.28-2.47l-1.23-2.88a2.51,2.51,0,0,1-.19-1.22l1.76-19a2.51,2.51,0,0,1,.41-1.16h0a3.9,3.9,0,0,0-.89-5.27l-6-4.55A3.9,3.9,0,0,0,77.74,27l-3.8,1.3a2.51,2.51,0,0,1-2.28-.34L67,24.61A2.51,2.51,0,0,0,66,24.16l-5.08-.81a18.57,18.57,0,0,0-13.16,2.83l-.64.42a2.51,2.51,0,0,1-1.84.37L37.5,25.55a2.51,2.51,0,0,0-2.43.92l-4.45,5.66A2.51,2.51,0,0,0,30.28,34.68Z" fill="#ff9e16"/>
          <path d="M40.27,27.59" fill="none" stroke="#231c34" stroke-linecap="round" stroke-miterlimit="10" stroke-width="0.3"/>
          <path d="M35.24,9.75" fill="none" stroke="#231c34" stroke-linecap="round" stroke-miterlimit="10" stroke-width="0.3"/>
          <line x1="45.48" y1="28.44" x2="45.31" y2="9.75" fill="none" stroke="#231c34" stroke-linecap="round" stroke-miterlimit="10" stroke-width="0.3"/>
          <path d="M48.3,9.75" fill="none" stroke="#231c34" stroke-linecap="round" stroke-miterlimit="10" stroke-width="0.3"/>
          <path d="M54.7,26.48" fill="none" stroke="#231c34" stroke-linecap="round" stroke-miterlimit="10" stroke-width="0.3"/>
          <line x1="57.6" y1="26.48" x2="58.11" y2="9.75" fill="none" stroke="#231c34" stroke-linecap="round" stroke-miterlimit="10" stroke-width="0.3"/>
          <path d="M61.25,9.75" fill="none" stroke="#231c34" stroke-linecap="round" stroke-miterlimit="10" stroke-width="0.3"/>
          <path d="M66,27.59" fill="none" stroke="#231c34" stroke-linecap="round" stroke-miterlimit="10" stroke-width="0.3"/>
          <line x1="69.29" y1="28.44" x2="73.31" y2="9.75" fill="none" stroke="#231c34" stroke-linecap="round" stroke-miterlimit="10" stroke-width="0.3"/>
          <line x1="78.34" y1="29.12" x2="73.31" y2="9.75" fill="none" stroke="#231c34" stroke-linecap="round" stroke-miterlimit="10" stroke-width="0.3"/>
          <path d="M86.32,9.75" fill="none" stroke="#231c34" stroke-linecap="round" stroke-miterlimit="10" stroke-width="0.3"/>
          <path d="M80.39,29.89" fill="none" stroke="#231c34" stroke-linecap="round" stroke-miterlimit="10" stroke-width="0.3"/>
          <line x1="84.66" y1="33.56" x2="89.08" y2="9.75" fill="none" stroke="#231c34" stroke-linecap="round" stroke-miterlimit="10" stroke-width="0.3"/>
          <line x1="86.32" y1="32.96" x2="105.6" y2="24.31" fill="none" stroke="#231c34" stroke-linecap="round" stroke-miterlimit="10" stroke-width="0.3"/>
          <line x1="85.6" y1="38.77" x2="105.6" y2="35.47" fill="none" stroke="#231c34" stroke-linecap="round" stroke-miterlimit="10" stroke-width="0.3"/>
          <path d="M105.6,45.71" fill="none" stroke="#231c34" stroke-linecap="round" stroke-miterlimit="10" stroke-width="0.3"/>
          <path d="M86.32,41.58" fill="none" stroke="#231c34" stroke-linecap="round" stroke-miterlimit="10" stroke-width="0.3"/>
          <line x1="85.08" y1="51.23" x2="105.6" y2="51.23" fill="none" stroke="#231c34" stroke-linecap="round" stroke-miterlimit="10" stroke-width="0.3"/>
          <path d="M105.6,58.34" fill="none" stroke="#231c34" stroke-linecap="round" stroke-miterlimit="10" stroke-width="0.3"/>
          <path d="M83.63,61.16" fill="none" stroke="#231c34" stroke-linecap="round" stroke-miterlimit="10" stroke-width="0.3"/>
          <line x1="82.52" y1="69.5" x2="105.6" y2="66.42" fill="none" stroke="#231c34" stroke-linecap="round" stroke-miterlimit="10" stroke-width="0.3"/>
          <path d="M105.6,69" fill="none" stroke="#231c34" stroke-linecap="round" stroke-miterlimit="10" stroke-width="0.3"/>
          <path d="M84.66,78" fill="none" stroke="#231c34" stroke-linecap="round" stroke-miterlimit="10" stroke-width="0.3"/>
          <line x1="84.15" y1="81.36" x2="105.6" y2="82.56" fill="none" stroke="#231c34" stroke-linecap="round" stroke-miterlimit="10" stroke-width="0.3"/>
          <path d="M105.6,87" fill="none" stroke="#231c34" stroke-linecap="round" stroke-miterlimit="10" stroke-width="0.3"/>
          <path d="M88.5,90.07" fill="none" stroke="#231c34" stroke-linecap="round" stroke-miterlimit="10" stroke-width="0.3"/>
          <line x1="105.6" y1="100.57" x2="89.18" y2="93.62" fill="none" stroke="#231c34" stroke-linecap="round" stroke-miterlimit="10" stroke-width="0.3"/>
          <line x1="95.34" y1="110.81" x2="85.6" y2="95.44" fill="none" stroke="#231c34" stroke-linecap="round" stroke-miterlimit="10" stroke-width="0.3"/>
          <line x1="82.52" y1="110.81" x2="83.21" y2="92.37" fill="none" stroke="#231c34" stroke-linecap="round" stroke-miterlimit="10" stroke-width="0.3"/>
          <line x1="81.47" y1="110.81" x2="72.62" y2="91.69" fill="none" stroke="#231c34" stroke-linecap="round" stroke-miterlimit="10" stroke-width="0.3"/>
          <path d="M71.3,92.37" fill="none" stroke="#231c34" stroke-linecap="round" stroke-miterlimit="10" stroke-width="0.3"/>
          <path d="M71.3,111.38" fill="none" stroke="#231c34" stroke-linecap="round" stroke-miterlimit="10" stroke-width="0.3"/>
          <line x1="64.6" y1="110.81" x2="64.51" y2="90.84" fill="none" stroke="#231c34" stroke-linecap="round" stroke-miterlimit="10" stroke-width="0.3"/>
          <path d="M61.25,90.84" fill="none" stroke="#231c34" stroke-linecap="round" stroke-miterlimit="10" stroke-width="0.3"/>
          <path d="M60.8,111.38" fill="none" stroke="#231c34" stroke-linecap="round" stroke-miterlimit="10" stroke-width="0.3"/>
          <path d="M52.56,90.84" fill="none" stroke="#231c34" stroke-linecap="round" stroke-miterlimit="10" stroke-width="0.3"/>
          <path d="M59.05,110.81" fill="none" stroke="#231c34" stroke-linecap="round" stroke-miterlimit="10" stroke-width="0.3"/>
          <line x1="43.57" y1="110.81" x2="51.03" y2="91.69" fill="none" stroke="#231c34" stroke-linecap="round" stroke-miterlimit="10" stroke-width="0.3"/>
          <path d="M40.27,93.62" fill="none" stroke="#231c34" stroke-linecap="round" stroke-miterlimit="10" stroke-width="0.3"/>
          <path d="M43.84,110.13" fill="none" stroke="#231c34" stroke-linecap="round" stroke-miterlimit="10" stroke-width="0.3"/>
          <line x1="30.84" y1="110.13" x2="38.01" y2="93.62" fill="none" stroke="#231c34" stroke-linecap="round" stroke-miterlimit="10" stroke-width="0.3"/>
          <line x1="25.7" y1="110.13" x2="33.7" y2="90.84" fill="none" stroke="#231c34" stroke-linecap="round" stroke-miterlimit="10" stroke-width="0.3"/>
          <line x1="15.92" y1="84.63" x2="32.68" y2="89.04" fill="none" stroke="#231c34" stroke-linecap="round" stroke-miterlimit="10" stroke-width="0.3"/>
          <path d="M34.38,84" fill="none" stroke="#231c34" stroke-linecap="round" stroke-miterlimit="10" stroke-width="0.3"/>
          <path d="M15.92,79.63" fill="none" stroke="#231c34" stroke-linecap="round" stroke-miterlimit="10" stroke-width="0.3"/>
          <line x1="15.92" y1="69.5" x2="38.01" y2="73.51" fill="none" stroke="#231c34" stroke-linecap="round" stroke-miterlimit="10" stroke-width="0.3"/>
          <line x1="15.92" y1="64.72" x2="36.6" y2="63.52" fill="none" stroke="#231c34" stroke-linecap="round" stroke-miterlimit="10" stroke-width="0.3"/>
          <path d="M37.46,59.42" fill="none" stroke="#231c34" stroke-linecap="round" stroke-miterlimit="10" stroke-width="0.3"/>
          <path d="M15.92,58.34" fill="none" stroke="#231c34" stroke-linecap="round" stroke-miterlimit="10" stroke-width="0.3"/>
          <line x1="16.71" y1="55.16" x2="37.46" y2="52" fill="none" stroke="#231c34" stroke-linecap="round" stroke-miterlimit="10" stroke-width="0.3"/>
          <path d="M37.46,48" fill="none" stroke="#231c34" stroke-linecap="round" stroke-miterlimit="10" stroke-width="0.3"/>
          <path d="M16.71,48.24" fill="none" stroke="#231c34" stroke-linecap="round" stroke-miterlimit="10" stroke-width="0.3"/>
          <line x1="15.92" y1="46.05" x2="33.7" y2="39.19" fill="none" stroke="#231c34" stroke-linecap="round" stroke-miterlimit="10" stroke-width="0.3"/>
          <path d="M33.27,37.74" fill="none" stroke="#231c34" stroke-linecap="round" stroke-miterlimit="10" stroke-width="0.3"/>
          <path d="M16.71,36.26" fill="none" stroke="#231c34" stroke-linecap="round" stroke-miterlimit="10" stroke-width="0.3"/>
          <line x1="16.71" y1="30.57" x2="33.7" y2="32.11" fill="none" stroke="#231c34" stroke-linecap="round" stroke-miterlimit="10" stroke-width="0.3"/>
          <line x1="26.69" y1="10.43" x2="35.24" y2="29.89" fill="none" stroke="#231c34" stroke-linecap="round" stroke-miterlimit="10" stroke-width="0.3"/>
          <path d="M88,81.35a2.51,2.51,0,0,1-.44-1.29l-.77-14.28a2.51,2.51,0,0,1,.48-1.61,2.51,2.51,0,0,0,.28-2.47l-1.23-2.88a2.51,2.51,0,0,1-.19-1.22l1.76-19a2.51,2.51,0,0,1,.41-1.16,3.9,3.9,0,0,0-.89-5.27l-6-4.55A3.9,3.9,0,0,0,77.74,27l-3.8,1.3a2.51,2.51,0,0,1-2.28-.34L67,24.61A2.51,2.51,0,0,0,66,24.16l-5.08-.81c-.35-.06-.69-.1-1-.13V98.3l.23.21a2.51,2.51,0,0,0,1.72.68h1.4a2.51,2.51,0,0,0,2.07-1.08l1.68-2.42a2.51,2.51,0,0,1,1.77-1.07l7.53-.9a2.51,2.51,0,0,1,1.67.39l5,3.25a2.51,2.51,0,0,0,1.58.4l3.52-.3a2.51,2.51,0,0,0,2.15-1.64l2.25-6.15a2.51,2.51,0,0,0-.29-2.29Z" fill="#231c34"/>
        </g>
        <g>
          <path d="M413.72,73l1.5-1.3H371.44l1.5,1.3A11.12,11.12,0,0,1,375,87.34a21.58,21.58,0,1,0,36.66,0A11.11,11.11,0,0,1,413.72,73Z" fill="#fff"/>
          <g clip-path="url(#clip-path-2)">
            <rect x="367.01" y="71.71" width="50.19" height="2.49" fill="#231c34"/>
            <rect x="367.01" y="76.65" width="50.19" height="2.49" fill="#231c34"/>
            <rect x="367.01" y="81.59" width="50.19" height="2.49" fill="#231c34"/>
            <rect x="367.01" y="86.54" width="50.19" height="2.49" fill="#231c34"/>
            <rect x="367.01" y="91.48" width="50.19" height="2.49" fill="#231c34"/>
            <rect x="367.01" y="96.42" width="50.19" height="2.49" fill="#231c34"/>
            <rect x="367.01" y="101.37" width="50.19" height="2.49" fill="#231c34"/>
            <rect x="367.01" y="106.31" width="50.19" height="2.49" fill="#231c34"/>
            <rect x="367.01" y="111.25" width="50.19" height="2.49" fill="#231c34"/>
            <rect x="367.01" y="116.2" width="50.19" height="2.49" fill="#231c34"/>
          </g>
          <path d="M371.44,71.71l1.5,1.3A11.12,11.12,0,0,1,375,87.34a21.58,21.58,0,0,0,16.8,32.91c.51,0,1,0,1.53,0V71.71Z" fill="#ff9e16"/>
        </g>
      </g>
    </g>
  </g>
</svg>
