<svg xmlns="http://www.w3.org/2000/svg" viewBox="0 0 246.6 136.79">
  <title>money</title>
  <g id="Layer_2" data-name="Layer 2">
    <g id="Isolation_Mode" data-name="Isolation Mode">
      <g>
        <g>
          <g>
            <rect x="108.67" y="84.59" width="99.36" height="50.2" fill="#b1e3e3"/>
            <path d="M193.93,128.95H122.77v-1a7.23,7.23,0,0,0-7.22-7.22h-1v-22h1a7.23,7.23,0,0,0,7.22-7.22v-1h71.17v1a7.23,7.23,0,0,0,7.22,7.22h1v22h-1a7.23,7.23,0,0,0-7.22,7.22Zm-69.16-2.06h67.15a9.3,9.3,0,0,1,8.19-8.19v-18a9.3,9.3,0,0,1-8.19-8.19H124.77a9.3,9.3,0,0,1-8.19,8.19v18A9.3,9.3,0,0,1,124.77,126.88Z" fill="#fff"/>
            <path d="M208,84.59v50.2H108.67V84.59H208m2-2H106.67v54.2H210V82.59Z" fill="#ff4612"/>
            <g>
              <circle cx="158.35" cy="109.69" r="12.95" fill="#fff"/>
              <circle cx="183.79" cy="109.69" r="2.44" fill="#fff"/>
              <circle cx="132.22" cy="109.69" r="2.44" fill="#fff"/>
            </g>
          </g>
          <g>
            <rect x="108.67" y="63.96" width="99.36" height="50.2" fill="#b1e3e3"/>
            <path d="M193.93,108.32H122.77v-1a7.23,7.23,0,0,0-7.22-7.22h-1v-22h1a7.23,7.23,0,0,0,7.22-7.22v-1h71.17v1a7.23,7.23,0,0,0,7.22,7.22h1v22h-1a7.23,7.23,0,0,0-7.22,7.22Zm-69.16-2.06h67.15a9.3,9.3,0,0,1,8.19-8.19v-18a9.3,9.3,0,0,1-8.19-8.19H124.77a9.3,9.3,0,0,1-8.19,8.19v18A9.3,9.3,0,0,1,124.77,106.26Z" fill="#fff"/>
            <path d="M208,64v50.2H108.67V64H208m2-2H106.67v54.2H210V62Z" fill="#ff4612"/>
            <g>
              <circle cx="158.35" cy="89.06" r="12.95" fill="#fff"/>
              <circle cx="183.79" cy="89.06" r="2.44" fill="#fff"/>
              <circle cx="132.22" cy="89.06" r="2.44" fill="#fff"/>
            </g>
          </g>
          <g>
            <rect x="108.67" y="43.33" width="99.36" height="50.2" fill="#b1e3e3"/>
            <path d="M193.93,87.69H122.77v-1a7.23,7.23,0,0,0-7.22-7.22h-1v-22h1a7.23,7.23,0,0,0,7.22-7.22v-1h71.17v1a7.23,7.23,0,0,0,7.22,7.22h1v22h-1a7.23,7.23,0,0,0-7.22,7.22Zm-69.16-2.06h67.15a9.3,9.3,0,0,1,8.19-8.19v-18a9.3,9.3,0,0,1-8.19-8.19H124.77a9.3,9.3,0,0,1-8.19,8.19v18A9.3,9.3,0,0,1,124.77,85.63Z" fill="#fff"/>
            <path d="M208,43.33v50.2H108.67V43.33H208m2-2H106.67v54.2H210V41.33Z" fill="#ff4612"/>
            <g>
              <circle cx="158.35" cy="68.43" r="12.95" fill="#fff"/>
              <circle cx="183.79" cy="68.43" r="2.44" fill="#fff"/>
              <circle cx="132.22" cy="68.43" r="2.44" fill="#fff"/>
            </g>
          </g>
          <g>
            <rect x="108.67" y="22.71" width="99.36" height="50.2" fill="#b1e3e3"/>
            <path d="M193.93,67.06H122.77V66a7.23,7.23,0,0,0-7.22-7.22h-1v-22h1a7.23,7.23,0,0,0,7.22-7.22v-1h71.17v1a7.23,7.23,0,0,0,7.22,7.22h1v22h-1A7.23,7.23,0,0,0,193.93,66ZM124.77,65h67.15a9.3,9.3,0,0,1,8.19-8.19v-18a9.3,9.3,0,0,1-8.19-8.19H124.77a9.3,9.3,0,0,1-8.19,8.19v18A9.3,9.3,0,0,1,124.77,65Z" fill="#fff"/>
            <path d="M208,22.71v50.2H108.67V22.71H208m2-2H106.67v54.2H210V20.71Z" fill="#ff4612"/>
            <g>
              <circle cx="158.35" cy="47.81" r="12.95" fill="#fff"/>
              <circle cx="183.79" cy="47.81" r="2.44" fill="#fff"/>
              <circle cx="132.22" cy="47.81" r="2.44" fill="#fff"/>
            </g>
          </g>
          <g>
            <rect x="108.67" y="2" width="99.36" height="50.2" fill="#b1e3e3"/>
            <path d="M193.93,46.36H122.77v-1a7.23,7.23,0,0,0-7.22-7.22h-1v-22h1a7.23,7.23,0,0,0,7.22-7.22v-1h71.17v1a7.23,7.23,0,0,0,7.22,7.22h1v22h-1a7.23,7.23,0,0,0-7.22,7.22ZM124.77,44.3h67.15a9.3,9.3,0,0,1,8.19-8.19v-18a9.3,9.3,0,0,1-8.19-8.19H124.77a9.3,9.3,0,0,1-8.19,8.19v18A9.3,9.3,0,0,1,124.77,44.3Z" fill="#fff"/>
            <path d="M208,2V52.2H108.67V2H208m2-2H106.67V54.2H210V0Z" fill="#ff4612"/>
            <g>
              <circle cx="158.35" cy="27.1" r="12.95" fill="#fff"/>
              <circle cx="183.79" cy="27.1" r="2.44" fill="#fff"/>
              <circle cx="132.22" cy="27.1" r="2.44" fill="#fff"/>
            </g>
          </g>
        </g>
        <g>
          <g>
            <rect x="2" y="84.59" width="99.36" height="50.2" fill="#b1e3e3"/>
            <path d="M87.26,128.95H16.1v-1a7.23,7.23,0,0,0-7.22-7.22h-1v-22h1a7.23,7.23,0,0,0,7.22-7.22v-1H87.26v1a7.23,7.23,0,0,0,7.22,7.22h1v22h-1a7.23,7.23,0,0,0-7.22,7.22ZM18.1,126.88H85.26a9.3,9.3,0,0,1,8.19-8.19v-18a9.3,9.3,0,0,1-8.19-8.19H18.1a9.3,9.3,0,0,1-8.19,8.19v18A9.3,9.3,0,0,1,18.1,126.88Z" fill="#fff"/>
            <path d="M101.36,84.59v50.2H2V84.59h99.36m2-2H0v54.2H103.36V82.59Z" fill="#ff4612"/>
            <g>
              <circle cx="51.68" cy="109.69" r="12.95" fill="#fff"/>
              <circle cx="77.12" cy="109.69" r="2.44" fill="#fff"/>
              <circle cx="25.55" cy="109.69" r="2.44" fill="#fff"/>
            </g>
          </g>
          <g>
            <rect x="2" y="63.96" width="99.36" height="50.2" fill="#b1e3e3"/>
            <path d="M87.26,108.32H16.1v-1a7.23,7.23,0,0,0-7.22-7.22h-1v-22h1a7.23,7.23,0,0,0,7.22-7.22v-1H87.26v1a7.23,7.23,0,0,0,7.22,7.22h1v22h-1a7.23,7.23,0,0,0-7.22,7.22ZM18.1,106.26H85.26a9.3,9.3,0,0,1,8.19-8.19v-18a9.3,9.3,0,0,1-8.19-8.19H18.1a9.3,9.3,0,0,1-8.19,8.19v18A9.3,9.3,0,0,1,18.1,106.26Z" fill="#fff"/>
            <path d="M101.36,64v50.2H2V64h99.36m2-2H0v54.2H103.36V62Z" fill="#ff4612"/>
            <g>
              <circle cx="51.68" cy="89.06" r="12.95" fill="#fff"/>
              <circle cx="77.12" cy="89.06" r="2.44" fill="#fff"/>
              <circle cx="25.55" cy="89.06" r="2.44" fill="#fff"/>
            </g>
          </g>
          <g>
            <rect x="2" y="43.33" width="99.36" height="50.2" fill="#b1e3e3"/>
            <path d="M87.26,87.69H16.1v-1a7.23,7.23,0,0,0-7.22-7.22h-1v-22h1a7.23,7.23,0,0,0,7.22-7.22v-1H87.26v1a7.23,7.23,0,0,0,7.22,7.22h1v22h-1a7.23,7.23,0,0,0-7.22,7.22ZM18.1,85.63H85.26a9.3,9.3,0,0,1,8.19-8.19v-18a9.3,9.3,0,0,1-8.19-8.19H18.1a9.3,9.3,0,0,1-8.19,8.19v18A9.3,9.3,0,0,1,18.1,85.63Z" fill="#fff"/>
            <path d="M101.36,43.33v50.2H2V43.33h99.36m2-2H0v54.2H103.36V41.33Z" fill="#ff4612"/>
            <g>
              <circle cx="51.68" cy="68.43" r="12.95" fill="#fff"/>
              <circle cx="77.12" cy="68.43" r="2.44" fill="#fff"/>
              <circle cx="25.55" cy="68.43" r="2.44" fill="#fff"/>
            </g>
          </g>
        </g>
        <g>
          <circle cx="218.28" cy="68.4" r="27.32" fill="#ff9e16" stroke="#ff4612" stroke-miterlimit="10" stroke-width="2"/>
          <path d="M212.51,74.28a9.68,9.68,0,0,0,6,2.55c1.84,0,3.51-1,3.51-2.93,0-4.08-11.5-3.68-11.5-11,0-3.51,2.62-6.23,6.4-6.84v-3.2h2.93V56a9.8,9.8,0,0,1,6,2.48L224,62.06A8.82,8.82,0,0,0,218.61,60c-2,0-3.64,1.19-3.64,2.89,0,4.05,11.47,3.34,11.47,11,0,3.47-2.42,6.43-6.57,7v3.13h-2.93V80.79a11.45,11.45,0,0,1-6.81-3.2Z" fill="#fff"/>
        </g>
      </g>
    </g>
  </g>
</svg>
