<svg xmlns="http://www.w3.org/2000/svg" viewBox="0 0 101.647 99.1224">
  <title>money-mobile</title>
  <g id="Layer_2" data-name="Layer 2">
    <g id="Isolation_Mode" data-name="Isolation Mode">
      <g>
        <g>
          <g>
            <rect x="1" y="61.4046" width="72.6685" height="36.7179" style="fill: #afe2e3"/>
            <path d="M63.3591,93.8479h-52.05v-.7544a5.2863,5.2863,0,0,0-5.28-5.28H5.2746V71.714H6.029a5.2863,5.2863,0,0,0,5.28-5.28v-.7543h52.05v.7543a5.2863,5.2863,0,0,0,5.28,5.28h.7544V87.8131H68.64a5.2863,5.2863,0,0,0-5.28,5.28ZM12.7763,92.3392H61.8922a6.802,6.802,0,0,1,5.993-5.993V73.181a6.802,6.802,0,0,1-5.993-5.993H12.7763a6.802,6.802,0,0,1-5.993,5.993V86.3462A6.802,6.802,0,0,1,12.7763,92.3392Z" style="fill: #fff"/>
            <path d="M73.6685,61.4047V98.1224H1V61.4047H73.6685m1-1H0V99.1224H74.6685V60.4047Z" style="fill: #ff4713"/>
            <g>
              <circle cx="37.3342" cy="79.7636" r="9.468" style="fill: #fff"/>
              <circle cx="55.9414" cy="79.7636" r="1.7828" style="fill: #fff"/>
              <circle cx="18.2242" cy="79.7636" r="1.7828" style="fill: #fff"/>
            </g>
          </g>
          <g>
            <rect x="1" y="46.3177" width="72.6685" height="36.7179" style="fill: #afe2e3"/>
            <path d="M63.3591,78.761h-52.05v-.7544a5.2863,5.2863,0,0,0-5.28-5.28H5.2746V56.6272H6.029a5.2864,5.2864,0,0,0,5.28-5.2805v-.7543h52.05v.7543a5.2864,5.2864,0,0,0,5.28,5.2805h.7544v16.099H68.64a5.2863,5.2863,0,0,0-5.28,5.28ZM12.7763,77.2523H61.8922a6.802,6.802,0,0,1,5.993-5.993V58.0941a6.802,6.802,0,0,1-5.993-5.993H12.7763a6.802,6.802,0,0,1-5.993,5.993V71.2593A6.802,6.802,0,0,1,12.7763,77.2523Z" style="fill: #fff"/>
            <path d="M73.6685,46.3177V83.0356H1V46.3177H73.6685m1-1H0V84.0356H74.6685V45.3177Z" style="fill: #ff4713"/>
            <g>
              <circle cx="37.3342" cy="64.6767" r="9.468" style="fill: #fff"/>
              <circle cx="55.9414" cy="64.6767" r="1.7828" style="fill: #fff"/>
              <circle cx="18.2242" cy="64.6767" r="1.7828" style="fill: #fff"/>
            </g>
          </g>
          <g>
            <rect x="1" y="31.2309" width="72.6685" height="36.7179" style="fill: #afe2e3"/>
            <path d="M63.3591,63.6741h-52.05V62.92a5.2864,5.2864,0,0,0-5.28-5.28H5.2746V41.54H6.029a5.2863,5.2863,0,0,0,5.28-5.28v-.7544h52.05V36.26a5.2863,5.2863,0,0,0,5.28,5.28h.7544v16.099H68.64a5.2864,5.2864,0,0,0-5.28,5.28ZM12.7763,62.1654H61.8922a6.802,6.802,0,0,1,5.993-5.993V43.0072a6.802,6.802,0,0,1-5.993-5.993H12.7763a6.802,6.802,0,0,1-5.993,5.993V56.1724A6.802,6.802,0,0,1,12.7763,62.1654Z" style="fill: #fff"/>
            <path d="M73.6685,31.2308V67.9487H1V31.2308H73.6685m1-1H0V68.9487H74.6685V30.2308Z" style="fill: #ff4713"/>
            <g>
              <circle cx="37.3342" cy="49.5898" r="9.468" style="fill: #fff"/>
              <circle cx="55.9414" cy="49.5898" r="1.7828" style="fill: #fff"/>
              <circle cx="18.2242" cy="49.5898" r="1.7828" style="fill: #fff"/>
            </g>
          </g>
          <g>
            <rect x="1" y="16.144" width="72.6685" height="36.7179" style="fill: #afe2e3"/>
            <path d="M63.3591,48.5872h-52.05v-.7543a5.2864,5.2864,0,0,0-5.28-5.2805H5.2746V26.4534H6.029a5.2863,5.2863,0,0,0,5.28-5.28v-.7544h52.05v.7544a5.2863,5.2863,0,0,0,5.28,5.28h.7544v16.099H68.64a5.2864,5.2864,0,0,0-5.28,5.2805ZM12.7763,47.0785H61.8922a6.802,6.802,0,0,1,5.993-5.993V27.92a6.802,6.802,0,0,1-5.993-5.993H12.7763a6.802,6.802,0,0,1-5.993,5.993V41.0855A6.802,6.802,0,0,1,12.7763,47.0785Z" style="fill: #fff"/>
            <path d="M73.6685,16.1439V52.8618H1V16.1439H73.6685m1-1H0V53.8618H74.6685V15.1439Z" style="fill: #ff4713"/>
            <g>
              <circle cx="37.3342" cy="34.5029" r="9.468" style="fill: #fff"/>
              <circle cx="55.9414" cy="34.5029" r="1.7828" style="fill: #fff"/>
              <circle cx="18.2242" cy="34.5029" r="1.7828" style="fill: #fff"/>
            </g>
          </g>
          <g>
            <rect x="1" y="1" width="72.6685" height="36.7179" style="fill: #afe2e3"/>
            <path d="M63.3591,33.4433h-52.05v-.7544a5.2863,5.2863,0,0,0-5.28-5.28H5.2746V11.3094H6.029a5.2863,5.2863,0,0,0,5.28-5.28V5.2747h52.05V6.029a5.2863,5.2863,0,0,0,5.28,5.28h.7544V27.4085H68.64a5.2863,5.2863,0,0,0-5.28,5.28ZM12.7763,31.9346H61.8922a6.8018,6.8018,0,0,1,5.993-5.993V12.7764a6.802,6.802,0,0,1-5.993-5.993H12.7763a6.802,6.802,0,0,1-5.993,5.993V25.9416A6.8018,6.8018,0,0,1,12.7763,31.9346Z" style="fill: #fff"/>
            <path d="M73.6685,1V37.7179H1V1H73.6685m1-1H0V38.7179H74.6685V0Z" style="fill: #ff4713"/>
            <g>
              <circle cx="37.3342" cy="19.3589" r="9.468" style="fill: #fff"/>
              <circle cx="55.9414" cy="19.3589" r="1.7828" style="fill: #fff"/>
              <circle cx="18.2242" cy="19.3589" r="1.7828" style="fill: #fff"/>
            </g>
          </g>
        </g>
        <g>
          <circle cx="81.1686" cy="49.5612" r="19.9785" style="fill: #ff9e18;stroke: #ff4713;stroke-miterlimit: 10"/>
          <path d="M76.9488,53.8681a7.08,7.08,0,0,0,4.4063,1.8673c1.3443,0,2.5645-.6975,2.5645-2.1413,0-2.9869-8.4146-2.6886-8.4146-8.0408a5.1622,5.1622,0,0,1,4.68-5.0037v-2.34h2.1413V40.5a7.1655,7.1655,0,0,1,4.3814,1.8172l-1.3941,2.6142a6.4535,6.4535,0,0,0-3.9084-1.5439c-1.4938,0-2.6639.8714-2.6639,2.1163,0,2.9626,8.3895,2.44,8.3895,8.0164a5.1311,5.1311,0,0,1-4.8045,5.1032v2.29H80.185v-2.29a8.3711,8.3711,0,0,1-4.9787-2.34Z" style="fill: #fff"/>
        </g>
      </g>
    </g>
  </g>
</svg>
